# xmcd
# 
# Track frame offsets:
#     150
#     8062
#     24750
#     37762
#     53925
#     69712
#     80850
#     90825
#     107437
#     116625
#     129637
#     148500
#     169012
#     181725
# 
# Disc length: 2634
# 
# Revision: 0
# Processed by: cddbd v1.5.2PL0 Copyright (c) Steve Scherf et al.
# Submitted via: fre:ac v1.0.17
# 
DISCID=a70a480e
DTITLE=Scott Ainslie - The Last Shot Got Him
DYEAR=2014
DGENRE=Blues
TTITLE0=The First Shot Missed Him
TTITLE1=Avalon Blues
TTITLE2=Love In Vain
TTITLE3=Say It Isn't So
TTITLE4=Let the Mermaids Flirt With Me
TTITLE5=Got The Blues, Can't Be Satisfied
TTITLE6=When I See an Elephant Fly
TTITLE7=Sally Whisky
TTITLE8=Honey, Right Away
TTITLE9=Ain't Misbehavin'
TTITLE10=Monday Morning Blues
TTITLE11=Late Last Night
TTITLE12=Cross Road Blues
TTITLE13=Over The Rainbow
EXTD=
EXTT0=
EXTT1=
EXTT2=
EXTT3=
EXTT4=
EXTT5=
EXTT6=
EXTT7=
EXTT8=
EXTT9=
EXTT10=
EXTT11=
EXTT12=
EXTT13=
PLAYORDER=
